<?xml version="1.0" encoding="UTF-8"?>
<svg id="Layer_2" data-name="Layer 2" xmlns="http://www.w3.org/2000/svg" viewBox="0 0 117.8 114.07">
  <defs>
    <style>
      .cls-1 {
        fill: #fff;
        fill-rule: evenodd;
      }
    </style>
  </defs>
  <g id="_图层_1" data-name="图层 1">
    <g>
      <polygon class="cls-1" points="32.46 86.86 32.46 65.39 29.86 65.39 29.89 80.07 24.38 65.39 21.97 65.39 21.97 86.86 24.56 86.86 24.56 72.18 30.11 86.86 32.46 86.86"/>
      <polygon class="cls-1" points="47.89 86.86 47.89 84.54 42.2 84.54 42.2 77.24 47.11 77.24 47.11 74.92 42.2 74.92 42.2 67.71 47.89 67.71 47.89 65.39 39.6 65.39 39.6 86.86 47.89 86.86"/>
      <polygon class="cls-1" points="64.09 86.86 59.87 75.7 63.75 65.39 60.92 65.39 58.45 73.23 56.01 65.39 53.17 65.39 56.94 75.7 52.84 86.86 55.68 86.86 58.45 78.36 61.25 86.86 64.09 86.86"/>
      <path class="cls-1" d="M79.46,81.97v-16.58h-2.59v16.73c0,1.69-1.09,2.65-2.38,2.65s-2.35-.96-2.35-2.65v-16.73h-2.59v16.58c0,1.57.51,2.83,1.39,3.71.93.93,2.17,1.42,3.56,1.42s2.65-.48,3.59-1.42c.87-.87,1.39-2.14,1.39-3.71Z"/>
      <path class="cls-1" d="M95.84,81.1c0-3.38-.57-4.88-3.01-5.88l-2.41-.99c-1.72-.72-2.05-1.36-2.05-3.47,0-1.12.24-1.99.75-2.56.36-.39.9-.66,1.66-.66.81,0,1.39.27,1.75.72.54.66.66,1.45.66,2.59h2.59c0-1.96-.33-3.35-1.42-4.4-.81-.78-1.99-1.24-3.56-1.24-1.42,0-2.56.45-3.41,1.24-1.09.99-1.63,2.53-1.63,4.4,0,3.26.72,4.46,2.92,5.37l2.44.99c1.75.72,2.11,1.48,2.11,3.95,0,1.42-.12,2.23-.69,2.86-.39.42-.96.69-1.84.69-.81,0-1.42-.27-1.78-.66-.57-.6-.72-1.39-.72-2.8h-2.59c0,2.29.33,3.53,1.33,4.52.84.84,2.11,1.3,3.77,1.3s2.98-.51,3.8-1.3c1.03-1.02,1.33-2.44,1.33-4.67Z"/>
    </g>
    <path class="cls-1" d="M9.95,113.83v-21.47h-2.59v9.38H2.59v-9.38H0v21.47h2.59v-9.74h4.76v9.74h2.59ZM27.04,103.1c0-5.37-.06-7.81-1.54-9.44-.81-.9-1.99-1.54-3.71-1.54s-2.86.63-3.68,1.54c-1.48,1.63-1.57,4.07-1.57,9.44s.09,7.81,1.57,9.44c.81.9,1.96,1.54,3.68,1.54s2.89-.63,3.71-1.54c1.48-1.63,1.54-4.07,1.54-9.44h0ZM24.45,103.1c0,5.1-.15,6.81-.9,7.84-.36.48-.9.81-1.75.81s-1.39-.33-1.75-.81c-.75-1.02-.9-2.74-.9-7.84s.15-6.81.9-7.84c.36-.48.9-.81,1.75-.81s1.39.33,1.75.81c.75,1.03.9,2.74.9,7.84h0ZM44.26,113.83l-3.29-9.74c1.87-.87,2.59-2.62,2.59-5.61,0-4.7-1.81-6.12-5.06-6.12h-4.85v21.47h2.59v-9.23h2.35l2.95,9.23h2.71ZM40.98,98.49c0,2.29-.45,3.83-2.44,3.83h-2.29v-7.63h2.29c1.99,0,2.44,1.54,2.44,3.8h0ZM53.22,113.83v-21.47h-2.59v21.47h2.59ZM68.02,113.83v-2.32h-5.94l5.94-17.18v-1.96h-8.26v2.32h5.58l-5.97,17.18v1.96h8.65ZM84.12,103.1c0-5.37-.06-7.81-1.54-9.44-.81-.9-1.99-1.54-3.71-1.54s-2.86.63-3.68,1.54c-1.48,1.63-1.57,4.07-1.57,9.44s.09,7.81,1.57,9.44c.81.9,1.96,1.54,3.68,1.54s2.89-.63,3.71-1.54c1.48-1.63,1.54-4.07,1.54-9.44h0ZM81.53,103.1c0,5.1-.15,6.81-.9,7.84-.36.48-.9.81-1.75.81s-1.39-.33-1.75-.81c-.75-1.02-.9-2.74-.9-7.84s.15-6.81.9-7.84c.36-.48.9-.81,1.75-.81s1.39.33,1.75.81c.75,1.03.9,2.74.9,7.84h0ZM101.22,113.83v-21.47h-2.59l.03,14.68-5.52-14.68h-2.41v21.47h2.59v-14.68l5.55,14.68h2.35ZM117.8,108.07c0-3.38-.57-4.88-3.01-5.88l-2.41-.99c-1.72-.72-2.05-1.36-2.05-3.47,0-1.12.24-1.99.75-2.56.36-.39.9-.66,1.66-.66.81,0,1.39.27,1.75.72.54.66.66,1.45.66,2.59h2.59c0-1.96-.33-3.35-1.42-4.4-.81-.78-1.99-1.24-3.56-1.24-1.42,0-2.56.45-3.41,1.24-1.09.99-1.63,2.53-1.63,4.4,0,3.26.72,4.46,2.92,5.37l2.44.99c1.75.72,2.11,1.48,2.11,3.95,0,1.42-.12,2.23-.69,2.86-.39.42-.96.69-1.84.69-.81,0-1.42-.27-1.78-.66-.57-.6-.72-1.39-.72-2.8h-2.59c0,2.29.33,3.53,1.33,4.52.84.84,2.11,1.3,3.77,1.3s2.98-.51,3.8-1.3c1.03-1.02,1.33-2.44,1.33-4.67Z"/>
    <g>
      <polygon class="cls-1" points="54.02 36.33 54.05 36.31 54.04 36.33 54.02 36.33"/>
      <path class="cls-1" d="M66.17,20.5h.73v-3.95h1.3v-1.98h2.23v-6.76h1.02V0h.6v7.81h1.02v6.76h2.23v1.98h1.3v3.95h.73v4.51h1.02v19.66c-.4-.05-.83-.07-1.27-.07-.86,0-1.74.18-2.62.36-.9.18-1.8.36-2.62.35-1.73-.02-2.25-.82-2.79-1.66-.66-1.01-1.35-2.09-3.89-2.17v-16.46h1.02v-4.51h0ZM78.35,46.13c-1.32.03-2.09.25-2.83.46h-.02c-.94.28-1.83.53-3.67.39-2.01-.15-3.2-.76-4.23-1.28-.82-.41-1.52-.77-2.45-.78v3.67h-1.42v9.51h16.05v-9.51h-1.42v-2.47Z"/>
      <path class="cls-1" d="M49.15,44.2h0c-.1-.26-.26-.52-.47-.74-.4-.43-.98-.75-1.71-.76h-.02c-.44,0-.89.1-1.31.3-.43.2-.83.49-1.16.85-.06.06-.15.08-.22.04-.1-.05-.2-.08-.31-.11h-.01c-.11-.03-.23-.04-.34-.04-.63,0-1.34.28-1.87.74l-.04.03c-.47.42-.8.96-.8,1.53,0,.51.21,1.07.77,1.46.47.33,1.18.56,2.21.57h.01c.3,0,.6-.03.88-.09.26-.06.52-.16.75-.3.09-.05.2-.02.26.07.15.25.4.5.71.75l.03.02c.4.31.91.6,1.47.85,1.07.49,2.28.82,3.21.83,1.13.01,2.03-.27,2.66-.72.71-.5,1.09-1.19,1.1-1.87,0-.35-.07-.65-.21-.92-.13-.27-.33-.51-.55-.72-.36-.35.61-.4.74-.4.6,0,1.13.13,1.62.3,1.72.58,2.96,1.68,4.96.13.66-.51,1.41-1.09,2.65-1.35,1.17-.25,1.99-.04,2.8.32l-.1-.09c-.9-.8-1.63-1.45-2.68-1.46-.62,0-1.26.23-1.89.47-.67.25-1.35.51-2.07.5-.45,0-.94-.12-1.38-.33-.37-.17-.72-.4-.99-.68-.34.3-.73.53-1.16.7-.49.19-1.03.28-1.57.28-.71,0-1.4-.21-1.92-.63-.43-.35-.74-.85-.86-1.5-.71-.04-1.35-.34-1.81-.79-.31-.3-.54-.67-.68-1.09l-.18-.02h-.3c-.59-.02-1.19.09-1.73.32-.52.22-.99.55-1.35.97-.04.05-.1.07-.15.06h-.25c-.73-.02-1.29.12-1.74.36-.35.19-.64.45-.87.75.02.09.05.17.07.25l.14.33h.07c.14,0,.28.02.42.05h.01c.09.02.18.05.27.08.34-.35.75-.64,1.19-.84.47-.22.98-.33,1.47-.33h.01c.85.01,1.52.38,1.98.88.19.21.35.44.47.68.11-.04.22-.08.33-.1.17-.04.34-.06.5-.06.55,0,1.02.24,1.36.6.36.38.57.9.56,1.42,0,.62-.31,1.08-.71,1.41-.61.5-1.47.68-1.81.68h-.12s-.13-.02-.13-.02c-.1-.02-.17-.12-.15-.22.02-.1.12-.17.22-.15h.1s.09.02.09.02c.3,0,1.04-.16,1.57-.59.32-.26.57-.63.57-1.12,0-.42-.17-.84-.46-1.15-.27-.29-.65-.48-1.09-.48-.13,0-.27.01-.41.05-.09.02-.18.05-.27.09.06.2.1.4.1.59v.02c0,.56-.27,1.1-.66,1.5-.39.4-.92.65-1.46.65h-.02c-.39,0-.74-.12-.99-.34-.24-.21-.39-.51-.38-.89,0-.23.08-.46.23-.63.13-.16.33-.26.58-.29.1-.01.2.06.21.17.01.1-.06.19-.17.21-.15.02-.26.08-.34.16-.09.1-.13.24-.13.39,0,.26.09.46.25.6.18.16.45.25.74.25h.02c.44,0,.87-.21,1.19-.54.33-.33.54-.78.55-1.23l-.13-.63h0ZM42.2,42.45c.06.1.1.17.14.18.1.06.23.46.36.8l.03.07c-.42.13-.82.35-1.17.63-.16-.09-.32-.16-.48-.21-.22-.06-.44-.1-.66-.1h-.02c-.56,0-1.11.19-1.53.56-.11.1-.21.2-.3.32-.11-.03-.22-.05-.34-.07-.15-.02-.3-.04-.43-.04-.64,0-1.4.16-1.96.51-.48.3-.82.73-.83,1.28,0,.51.19.74.37.95l.07.08c.07.08.19.09.26.02.08-.07.09-.19.02-.26l-.07-.08c-.13-.16-.28-.33-.28-.7,0-.41.27-.73.65-.97.5-.31,1.18-.46,1.76-.45.1,0,.24.02.38.04l.2.04c-.13.27-.2.58-.21.94h0c0,.53.07.92.31,1.25.24.32.63.57,1.25.79.1.03.21-.02.24-.11.03-.1-.02-.21-.11-.24-.55-.2-.88-.4-1.08-.66-.18-.25-.24-.57-.24-1.01v-.02c0-.56.24-1.01.58-1.32.34-.3.81-.47,1.28-.46h.02c.18,0,.37.03.55.09.1.03.2.07.3.12-.44.46-.74,1.03-.75,1.63,0,.62.25,1.3.93,1.77.52.37,1.31.62,2.41.64h.02c.33,0,.66-.03.97-.1.24-.06.48-.14.7-.25.15.2.35.41.59.6-.41.58-.95,1.01-1.57,1.3-.75.35-1.6.51-2.44.5-.89-.01-1.79-.22-2.58-.61-.74-.37-1.37-.89-1.82-1.57h0c-.06-.1-.18-.12-.26-.06-.4.28-.83.5-1.31.64-1.27.38-3.07.28-4.1-.59-.6-.5-.94-1.24-.94-2.21v-.02c.01-.84.39-1.57.97-2.09.62-.57,1.46-.9,2.3-.89.3,0,.6.05.88.15.27.09.53.23.78.41l.02.02c.09.05.21.01.25-.08.33-.62.82-1.09,1.39-1.41.62-.34,1.33-.51,2.06-.5.58,0,1.16.13,1.71.37.25.11.5.25.73.41h0ZM50.2,40.12c-.05-.18-.07-.37-.07-.57v-.02c.01-.81.5-1.52,1.2-2.03.71-.51,1.64-.82,2.51-.81h.02c1,.01,1.88.39,2.53.93.56.47.94,1.08,1.06,1.68h0c.03.15.04.29.04.43,0,.37-.16.71-.44.95-.26.23-.64.37-1.1.36-.4,0-.79-.12-1.07-.3-.24-.16-.4-.36-.39-.58,0-.14.09-.31.2-.45.12-.15.26-.25.35-.26.1,0,.18-.1.18-.2,0-.1-.1-.18-.2-.18-.2.01-.44.18-.62.4-.16.2-.28.45-.28.68,0,.36.22.67.56.9.34.22.8.36,1.27.36.56,0,1.02-.17,1.35-.45.36-.31.56-.75.57-1.22,0-.12,0-.23-.02-.35.14-.05.28-.09.43-.12.21-.04.44-.06.66-.05.63,0,1.27.17,1.73.48.37.25.62.6.61,1.04,0,.17-.05.35-.13.54-.09.21-.22.43-.37.63-.02.02-.03.05-.04.09-.01.1.06.2.16.21l.25.03h.25c.4.02.8-.06,1.26-.15.62-.12,1.35-.26,2.3-.25,2.49.03,3.15,1.05,3.77,2,.6.93,1.17,1.81,3.1,1.83.87.01,1.79-.17,2.7-.35.87-.17,1.74-.35,2.55-.35,1.97-.01,3.54.58,5.02,1.13,1.52.57,2.94,1.11,4.6.95-.48.1-.97.14-1.46.14-1.26-.02-2.18-.36-3.11-.7-.97-.36-1.95-.72-3.34-.74-1.65-.02-2.53.23-3.38.47h-.02c-.91.26-1.77.51-3.54.38-1.54-.12-2.59-.52-3.46-.93-.49-.36-.9-.73-1.29-1.07-.96-.85-1.74-1.54-2.92-1.56-.7,0-1.36.24-2.03.49-.64.24-1.29.48-1.93.48-.4,0-.83-.11-1.23-.29-.38-.18-.74-.42-1-.73h0c-.07-.08-.19-.09-.27-.01-.34.33-.73.58-1.17.75-.45.17-.93.26-1.43.25-.63,0-1.24-.19-1.68-.55-.39-.32-.67-.78-.74-1.4,0-.1-.09-.17-.19-.17h-.01c-.67,0-1.27-.28-1.7-.69-.29-.28-.5-.64-.61-1.03h0Z"/>
      <path class="cls-1" d="M35.51,21.59c.48-.02.99-.08,1.5-.18l.1-.02c.21-.56.15-2.29.02-2.76-.07-.25-.18-.46-.31-.65-.36-.5-.85-.77-1.35-1.06-.17-.09-.33-.19-.49-.29-.18-.11-.32-.23-.44-.4-.27-.39-.28-.7-.34-.99.78.35,1.08.37,1.95.34.44-.02.9-.07,1.37-.16.23-.05.19-.67.19-.88.24.25.53.71.9.58.69-.25,1.31-.57,1.9-1.01,1.08-.81,1.2-1.54,1.63-1.95.06-.06.14-.09.23-.09h.25v-.59h-.04c-.11,0-.21-.05-.29-.12-.08-.08-.13-.18-.13-.3s.05-.22.13-.3c.07-.07.18-.12.29-.12h.04v-.59h-.04c-.11,0-.21-.05-.29-.12-.08-.08-.13-.18-.13-.3s.05-.22.13-.3c.07-.07.18-.12.29-.12h.04v-.59h-.04c-.11,0-.21-.05-.29-.12-.08-.08-.13-.18-.13-.3s.05-.22.13-.3c.07-.07.18-.12.29-.12h.04v-.59h-.04c-.11,0-.21-.05-.29-.12-.08-.08-.13-.18-.13-.3s.05-.22.13-.3c.07-.07.18-.12.29-.12h.04v-.59c-.09-.01-.17-.05-.24-.11-.08-.08-.13-.18-.13-.3s.05-.22.13-.3c.06-.06.14-.1.24-.11v-.6c-.07-.02-.14-.06-.19-.11-.08-.08-.13-.18-.13-.3s.05-.22.13-.3c.05-.05.12-.09.19-.11v-.61c-.07-.02-.14-.06-.19-.11-.08-.08-.13-.18-.13-.3s.05-.22.13-.3c.05-.05.12-.09.19-.11v-.66s-.08-.06-.11-.1c-.05-.07-.08-.16-.08-.25s.03-.18.08-.25c.03-.04.07-.08.11-.1v-.74h.66v.74s.08.06.11.1c.05.07.08.16.08.25s-.03.18-.08.25c-.03.04-.07.08-.11.1v.66c.07.02.14.06.19.11.08.08.13.18.13.3s-.05.22-.13.3c-.05.05-.12.09-.19.11v.61c.07.02.14.06.19.11.08.08.13.18.13.3s-.05.22-.13.3c-.05.05-.12.09-.19.11v.6c.09.01.17.05.23.11.08.08.13.18.13.3s-.05.22-.13.3c-.06.06-.14.1-.23.11v.59h.04c.11,0,.21.05.29.12.08.08.13.18.13.3s-.05.22-.13.3c-.07.07-.18.12-.29.12h-.04v.59h.04c.11,0,.21.05.29.12.08.08.13.18.13.3s-.05.22-.13.3c-.07.07-.18.12-.29.12h-.04v.59h.04c.11,0,.21.05.29.12.08.08.13.18.13.3s-.05.22-.13.3c-.07.07-.18.12-.29.12h-.04v.59h.04c.11,0,.21.05.29.12.08.08.13.18.13.3s-.05.22-.13.3c-.07.07-.18.12-.29.12h-.04v.59h.25c.09,0,.17.04.23.09.43.42.55,1.14,1.63,1.95.59.44,1.21.76,1.9,1.01.37.13.66-.33.9-.58,0,.21-.04.84.19.88.47.09.93.15,1.37.16.88.03,1.18.01,1.95-.34-.06.28-.07.6-.34.99-.12.17-.26.29-.44.4-.16.1-.32.19-.49.29-.5.28-.99.56-1.35,1.06-.14.19-.24.4-.31.65-.13.47-.19,2.2.02,2.76l.1.02c.51.1,1.01.16,1.5.18.94.04,1.28.02,2.12-.35-.07.34-.12.69-.36,1.04-.13.18-.28.31-.48.44-.17.11-.35.21-.53.31-.55.31-1.09.62-1.48,1.16-.15.21-.27.44-.35.72-.11.38-.26,2.75-.08,3.5,0,.04.02.08.03.11l.12.02c.55.11,1.1.18,1.62.19,1,.04,1.39.02,2.28-.37-.16.71-.25,1.16-.9,1.57-.19.12-.38.23-.58.34-.59.34-1.18.67-1.6,1.26-.17.23-.29.48-.38.78-.21.73-.25,3.64-.06,4.15l.13.03c.6.12,1.19.19,1.75.21h.1c-.25.12-.48.26-.7.42-.41.3-.76.67-1.01,1.08-.1.17-.18.34-.24.52-.63.12-1.06.15-1.42.14-.75-.03-1.14-.25-2.34-.27-.48,0-.17-.37.08-.64.12-.13.14-.12-.04-.09-.7.13-1.4.29-2.18-.34.37-.03.75-.57.3-1,.47-.33.94-.67,1.42-.99.1,0,.36-.14.41-.17l.86-.6s.18-.16.26-.26l.16-.11c.1,0,.22-.02.33-.09.13-.08.22-.19.25-.3l.9-.61c.24-.2-.05-.63-.31-.4l-.94.68c-.07.01-.15.04-.23.08-.11.07-.19.16-.23.25l-.14.1c-.1.02-.27.1-.38.18l-.86.6c-.14.1-.33.29-.32.35l-1.39.94.04-.22c.32-.53.41-.52.34-.91-.05-.33.01-.25-.24-.37-.08-.04-.17-.09-.27-.15-.06-.04-.07-.06-.07-.08.02-.05.26-.04.41-.09-.03-.05-.32-.1-.26-.15.16-.12.37-.15.37-.15-.07-.04-.16-.07-.22-.11.02-.04.16-.01.22-.08-.17-.12-.68-.08-.95-.11-.65-.07-.75.01-1.09.06,0-.18-.21-.16-.31-.24-.02-.15-.19-.15-.3-.11-.09-.16-.18-.13-.44.05-.15.1-.25-.11-.32.14-.02-.04-.05-.07-.07-.11.18-.21.05-.38-.23-.32-.05-.02-.1-.08-.15-.11.12-.04.09-.19.07-.25-.11-.3-.03-.5.1-.76.13-.25.26-.64.23-.97.36-.76.32-1.17,1.4-2.08.61.58.93.86,1.41,1.06.45.19,1.03.3,2.13.5.6.11.82.46,1.43.48-1.45-1.22-3.21-.53-4.67-2.21.22-.07.52-.17.95-.22.87-.11,1.16-.11,2.04-.3.4-.08.99-.18,2.01-.13,1.32.07,1.44,2.4,1.92,4.14-.1-.57-.17-1.18-.28-1.84-.13-.79-.21-1.66-.85-2.21-.23-.2-.48-.29-.74-.33-.98-.16-1.89.16-2.85.27-1.09.13-2.05.12-2.35.47-.61-.73-1.3-.84-1.91-.58-.43.18-.63.47-.75.83-.23.68-.23,1.47-.24,2.17-.12.41-.06.97.22,1.71-.14.18-.05.22,0,.27.06.06.01.08-.03.14-.17.23-.23.34-.2.58l.08.23c.05.61.25,1,.66.92.12-.02.14.08.15.16v.32c-.15.09-.31.17-.47.26-.13.05-.13.07-.32.09-.39-.05-.63-.01-.68.08-.01.04.08.02.08.02.07,0,.11.02.1.07-.06.03-.14.09-.14.14,0,.07.03.03.04,0,.07-.11.13-.06.12-.05-.02.04-.06.07-.05.08.01,0,.08,0,.08-.01.17-.11.25-.11.42-.09-.09.07-.17.12-.26.17,0,0-.12.07.03.07.26,0,.38-.23.46-.26.19-.06.42-.04.69-.06.14.07.36.35.42.49.02.04-.09,0-.09.03,0,.04.1.09.15.15.09.11.17.24.16.27-.01.04-.22.08-.06.38.05.09.07.12.07.22-.07.34-.56.09-.31.71l-.94.64h0c-.05-.07-.5.17-.56.22l-1.09.78c-.05.04-.29.26-.37.39l-.13.09c-.14-.02-.3.02-.45.12-.17.11-.29.26-.32.41l-.95.65-.2.15c-.15.09.2.59.39.48.43-.29.86-.6,1.29-.9.07-.02.15-.05.22-.1.11-.07.19-.15.25-.24l.35-.25c.11-.05.25-.12.35-.19l1.09-.78c.12-.09.28-.24.35-.34.27-.2.54-.39.81-.59.2.76-.12.98-.17,1.1-.29.68-.22.9.35,1.13l.27.08c-.02.13-.04.24-.02.35-.19-.07-.39-.12-.59-.17-.32-.07-.64-.1-.97-.11-.41,0-.81.04-1.2.14-.38.09-.76.24-1.1.43-.33.19-.64.42-.91.69-.19.19-.36.41-.51.64-.06-.03-.12-.07-.17-.1-.06-.03-.12-.06-.17-.08-.03-1.14-.12-2.16-.18-2.36-.09-.32-.23-.6-.41-.85-.46-.64-1.1-1-1.74-1.36-.21-.12-.42-.24-.62-.37-.22-.14-.4-.29-.55-.5-.25-.35-.32-.75-.41-1.16.75.49,1.53.42,2.45.39.57-.02,1.16-.09,1.75-.21l.13-.03c.2-.51.15-3.42-.06-4.15-.08-.3-.21-.55-.38-.78-.43-.59-1.01-.92-1.6-1.26-.2-.11-.39-.22-.58-.34-.65-.41-.74-.85-.9-1.57.89.39,1.28.41,2.28.37.52-.02,1.07-.08,1.62-.19l.12-.02s.02-.07.03-.11c.17-.75.02-3.12-.08-3.5-.08-.27-.19-.51-.35-.72-.39-.54-.93-.85-1.48-1.16-.18-.1-.36-.21-.53-.31-.19-.12-.35-.25-.48-.44-.25-.35-.29-.71-.36-1.04.84.37,1.18.39,2.12.35h0ZM49.69,39.13c-1.3.73-3.65.96-3.56,1.57-.73,0-.91-1.09-1.79-1.31-.7-.18-.95-.87-1.15-.64-.23.64-.3,1.08-.52,1.26-.36.29.29.44.68.57-.35.09-.15.24-.36.37.11.13.22.22.32.38-.17.14-.18.5-.12.89.03-.03.05-.05.08-.08h0c.2-.19.42-.36.69-.51.26-.14.55-.25.88-.33.32-.07.68-.11,1.08-.11h.14c.18-.19.38-.36.6-.52.26-.19.54-.34.83-.47.3-.13.62-.22.94-.29.32-.06.65-.09.98-.09h.26c-.01-.09-.02-.19-.02-.29v-.02c0-.14.01-.27.04-.4h0ZM43.22,35.52c-.21.09-.13.18-.19.27.09,0,.13.03.21.15.02-.16,0-.26-.02-.42h0ZM42.08,28.88c-.15-.24-.63-.54-1.13-.55-.9-.02-1.31.76-1.3,1.76,0,.5.08.97.07,1.56,0,0-.03.58.03.92.06-.12.35-.27.53-.07.03-.32.02-.4.02-.65,0-.35.15-.35.24-.77.24-1.05,1.09-1.88,1.53-2.19h0ZM51.01,50.68c-.37,1.54-.13,5.75-.13,7.44-20.66,0,4.78,0-15.88,0,0-1.72.26-6.09-.15-7.54-.1-.35-.25-.66-.45-.93l-.05-.07c.67.03,1.34-.05,1.92-.22.26-.08.51-.18.75-.3.15-.08.3-.16.45-.25.21.28.45.53.71.76.34.3.73.55,1.13.75.42.21.88.37,1.34.49.47.11.95.17,1.44.18.46,0,.93-.04,1.38-.13.44-.09.87-.23,1.27-.42.35-.17.68-.37.98-.62.26-.21.5-.46.7-.74.16.11.32.21.49.31.26.15.54.3.84.43.57.26,1.18.48,1.77.63.51.13,1.01.22,1.47.24Z"/>
    </g>
  </g>
</svg>