<?xml version="1.0" encoding="UTF-8"?>
<svg id="Layer_2" data-name="Layer 2" xmlns="http://www.w3.org/2000/svg" viewBox="0 0 75.1 18.64">
  <defs>
    <style>
      .cls-1 {
        fill: #d4975c;
        fill-rule: evenodd;
      }
    </style>
  </defs>
  <g id="_图层_1" data-name="图层 1">
    <path class="cls-1" d="M24.39,10.14v-.02c-.14-.34-.36-.68-.64-.99-.54-.58-1.32-1.01-2.31-1.02h-.03c-.59,0-1.2.14-1.78.4-.58.27-1.12.66-1.57,1.15-.08.08-.2.11-.3.06-.13-.06-.27-.11-.42-.14h-.02c-.15-.04-.31-.05-.46-.06-.85-.01-1.8.38-2.53,1l-.05.04c-.63.56-1.08,1.29-1.09,2.06,0,.69.28,1.44,1.04,1.98.63.45,1.6.75,2.98.77h.02c.41,0,.81-.03,1.19-.13.35-.09.7-.22,1.02-.4.12-.07.28-.03.35.09.2.34.54.68.96,1.01l.04.03c.55.41,1.24.81,1.98,1.15,1.44.66,3.08,1.11,4.34,1.13,1.52.02,2.74-.37,3.6-.97.95-.67,1.47-1.6,1.48-2.52,0-.47-.1-.88-.28-1.24-.18-.37-.44-.69-.74-.98-.49-.47.83-.55,1-.54.81.01,1.53.18,2.19.4,2.32.79,4,2.27,6.7.18.89-.68,1.9-1.47,3.58-1.82,1.58-.33,2.69-.06,3.78.43l-.13-.12c-1.22-1.08-2.21-1.96-3.61-1.98-.84-.01-1.7.31-2.55.63-.91.34-1.82.69-2.79.67-.61,0-1.27-.16-1.87-.44-.5-.23-.97-.54-1.34-.92-.46.41-.99.72-1.56.94-.66.26-1.39.38-2.11.37-.97-.01-1.89-.29-2.59-.86-.58-.47-1-1.14-1.16-2.02-.96-.06-1.82-.46-2.44-1.07-.42-.41-.74-.91-.91-1.47l-.24-.03-.4-.02c-.8-.01-1.6.14-2.33.45-.7.3-1.33.74-1.83,1.31-.05.06-.13.09-.21.09l-.34-.02c-.99-.01-1.75.18-2.35.51-.59.33-1.04.79-1.39,1.32-.08.12-.24.15-.35.07l-.05-.05c-.54-.59-1.18-1.03-1.87-1.34-.73-.32-1.52-.49-2.31-.5-.98-.01-1.95.22-2.78.68-.78.43-1.44,1.07-1.88,1.91-.06.12-.22.17-.34.11l-.03-.02c-.33-.25-.69-.43-1.05-.55-.39-.13-.79-.19-1.2-.2-1.13-.01-2.27.44-3.11,1.2C.53,10.55.02,11.53,0,12.67v.03c-.01,1.3.46,2.3,1.26,2.98,1.39,1.17,3.81,1.32,5.54.8.64-.19,1.22-.49,1.76-.87.11-.08.27-.05.35.06v.02c.61.91,1.48,1.63,2.47,2.12,1.06.53,2.28.81,3.48.83,1.14.01,2.29-.2,3.3-.68.83-.4,1.57-.97,2.12-1.75-.32-.27-.6-.54-.79-.82-.3.15-.62.26-.94.34-.42.1-.86.14-1.31.14h-.03c-1.5-.02-2.55-.36-3.26-.86-.92-.65-1.27-1.55-1.25-2.4,0-.81.41-1.58,1.01-2.2-.13-.06-.26-.12-.4-.16-.25-.07-.5-.11-.75-.12h-.03c-.64,0-1.26.22-1.73.63-.47.41-.78,1.01-.79,1.78v.03c0,.59.08,1.02.33,1.36.26.35.71.62,1.45.89.13.05.2.19.15.32-.05.13-.19.2-.32.15-.84-.3-1.36-.63-1.69-1.06-.33-.44-.43-.97-.42-1.67v-.02c0-.48.11-.9.28-1.27l-.27-.05c-.19-.03-.37-.05-.51-.05-.78,0-1.7.2-2.37.61-.51.32-.87.76-.88,1.31,0,.5.2.74.38.95l.09.11c.09.11.08.27-.03.36-.11.09-.27.08-.36-.03l-.09-.11c-.24-.28-.51-.59-.5-1.28,0-.75.47-1.33,1.12-1.73.75-.47,1.78-.7,2.65-.69.17,0,.38.03.58.06.16.03.32.06.46.09.12-.16.25-.31.4-.44.56-.49,1.3-.75,2.06-.75h.02c.3,0,.6.05.89.14.22.07.44.16.65.28.8-.65,1.83-1.05,2.76-1.04.19,0,.38.02.57.06h.02c.12.03.24.07.36.11.47-.48,1.02-.87,1.61-1.14.64-.29,1.32-.45,1.99-.45h.02c1.15.01,2.06.52,2.68,1.18.26.28.48.6.63.92.15-.06.3-.11.44-.14.23-.05.46-.08.68-.08.74,0,1.37.33,1.83.81.49.51.77,1.21.76,1.91-.01.84-.42,1.46-.96,1.9-.82.67-1.98.92-2.45.92h-.17s-.17-.03-.17-.03c-.14-.02-.23-.16-.21-.29.02-.14.16-.23.29-.21l.13.02h.12c.41.01,1.4-.21,2.12-.8.44-.36.77-.85.78-1.52,0-.57-.23-1.14-.62-1.56-.37-.39-.88-.64-1.47-.65-.18,0-.36.02-.56.06-.12.03-.24.07-.37.11.09.27.13.54.13.79v.02c0,.75-.36,1.49-.89,2.02-.53.53-1.24.88-1.98.88h-.02c-.52,0-1-.17-1.34-.47-.32-.29-.52-.69-.51-1.2,0-.31.1-.62.3-.85.18-.21.44-.36.79-.39.14-.01.26.09.28.23.01.14-.09.26-.23.28-.2.02-.36.1-.46.22-.12.14-.18.33-.18.53,0,.35.13.62.34.81.25.22.61.34,1,.34h.02c.6,0,1.18-.29,1.61-.73.44-.45.73-1.05.74-1.67l-.17-.85h0ZM25.8,4.62c-.07-.25-.1-.51-.1-.77v-.02c.02-1.09.67-2.05,1.62-2.74C28.28.4,29.53,0,30.72,0h.03c1.36.02,2.55.52,3.41,1.26.76.64,1.27,1.45,1.43,2.27h0c.04.2.05.39.05.58,0,.5-.22.96-.59,1.28-.35.31-.86.49-1.49.49-.54,0-1.07-.16-1.45-.41-.32-.21-.53-.48-.53-.78,0-.19.12-.42.27-.61.16-.2.35-.34.48-.35.14,0,.25-.13.24-.27,0-.14-.13-.25-.27-.24-.26.02-.6.24-.84.54-.22.26-.38.6-.38.92,0,.49.3.91.76,1.21.46.3,1.09.48,1.72.49.76,0,1.38-.23,1.82-.61.48-.42.75-1.01.76-1.65,0-.16,0-.31-.03-.47.18-.07.38-.12.58-.16.29-.05.59-.08.89-.07.85.01,1.72.24,2.33.65.5.34.83.81.83,1.4,0,.23-.07.48-.17.73-.12.29-.3.58-.5.85-.02.03-.04.07-.05.12-.02.14.08.27.22.29l.34.04.34.02c.54,0,1.07-.1,1.7-.22.83-.16,1.82-.36,3.11-.34,3.37.04,4.26,1.41,5.09,2.7.81,1.26,1.58,2.44,4.19,2.48,1.18.01,2.41-.23,3.65-.48,1.17-.23,2.35-.47,3.44-.48,2.66-.02,4.78.78,6.77,1.53,2.05.77,3.97,1.49,6.22,1.28-.65.13-1.31.19-1.97.18-1.7-.02-2.94-.48-4.2-.94-1.31-.48-2.64-.97-4.51-.99-2.23-.03-3.42.31-4.56.64h-.02c-1.22.36-2.39.69-4.78.51-2.08-.16-3.5-.7-4.67-1.26-.66-.48-1.22-.99-1.74-1.45-1.29-1.15-2.35-2.08-3.94-2.1-.94-.01-1.84.33-2.74.66-.86.33-1.74.65-2.6.64-.54,0-1.12-.15-1.66-.39-.52-.24-.99-.57-1.34-.98h-.01c-.1-.11-.26-.12-.36-.02-.45.44-.99.78-1.58,1.01-.6.23-1.26.35-1.93.34-.85-.01-1.67-.25-2.27-.74-.53-.43-.9-1.06-1-1.9-.01-.13-.12-.23-.25-.23h-.01c-.91-.01-1.72-.37-2.29-.94-.39-.38-.68-.86-.82-1.39v-.02Z"/>
  </g>
</svg>