<?xml version="1.0" encoding="UTF-8"?>
<svg id="Layer_2" data-name="Layer 2" xmlns="http://www.w3.org/2000/svg" viewBox="0 0 379.84 85.61">
  <defs>
    <style>
      .cls-1 {
        fill: #fff;
        fill-rule: evenodd;
      }
    </style>
  </defs>
  <g id="_图层_1" data-name="图层 1">
    <g>
      <polygon class="cls-1" points="154.3 53.52 154.33 53.5 154.33 53.52 154.3 53.52"/>
      <polygon class="cls-1" points="15.45 74.68 15.45 43.06 11.64 43.06 11.68 64.69 3.55 43.06 0 43.06 0 74.68 3.82 74.68 3.82 53.05 11.99 74.68 15.45 74.68"/>
      <polygon class="cls-1" points="38.19 74.68 38.19 71.26 29.8 71.26 29.8 60.51 37.04 60.51 37.04 57.09 29.8 57.09 29.8 46.48 38.19 46.48 38.19 43.06 25.98 43.06 25.98 74.68 38.19 74.68"/>
      <polygon class="cls-1" points="62.05 74.68 55.83 58.25 61.56 43.06 57.38 43.06 53.74 54.61 50.14 43.06 45.97 43.06 51.52 58.25 45.48 74.68 49.66 74.68 53.74 62.16 57.87 74.68 62.05 74.68"/>
      <path class="cls-1" d="M84.7,67.49v-24.42h-3.82v24.65c0,2.49-1.6,3.91-3.51,3.91s-3.46-1.42-3.46-3.91v-24.65h-3.82v24.42c0,2.31.75,4.17,2.04,5.46,1.38,1.38,3.2,2.09,5.24,2.09s3.91-.71,5.28-2.09c1.29-1.29,2.04-3.15,2.04-5.46Z"/>
      <path class="cls-1" d="M108.81,66.2c0-4.97-.84-7.19-4.44-8.66l-3.55-1.46c-2.53-1.07-3.02-2-3.02-5.11,0-1.64.36-2.93,1.11-3.78.53-.58,1.33-.98,2.44-.98,1.2,0,2.04.4,2.58,1.07.8.98.98,2.13.98,3.82h3.82c0-2.89-.49-4.93-2.09-6.48-1.2-1.16-2.93-1.82-5.24-1.82-2.09,0-3.77.67-5.02,1.82-1.6,1.47-2.4,3.73-2.4,6.48,0,4.8,1.07,6.57,4.31,7.9l3.6,1.47c2.58,1.07,3.11,2.18,3.11,5.82,0,2.09-.18,3.29-1.02,4.22-.58.62-1.42,1.02-2.71,1.02-1.2,0-2.09-.4-2.62-.98-.84-.89-1.07-2.04-1.07-4.13h-3.82c0,3.38.49,5.2,1.95,6.66,1.24,1.24,3.11,1.91,5.55,1.91s4.4-.75,5.6-1.91c1.51-1.51,1.95-3.6,1.95-6.88Z"/>
      <path class="cls-1" d="M220.97,74.68v-31.62h-3.82v13.81h-7.02v-13.81h-3.82v31.62h3.82v-14.34h7.02v14.34h3.82ZM246.15,58.87c0-7.9-.09-11.5-2.26-13.9-1.2-1.33-2.93-2.26-5.46-2.26s-4.22.93-5.42,2.26c-2.18,2.4-2.31,6-2.31,13.9s.13,11.5,2.31,13.9c1.2,1.33,2.89,2.26,5.42,2.26s4.26-.93,5.46-2.26c2.18-2.4,2.26-6,2.26-13.9h0ZM242.33,58.87c0,7.51-.22,10.04-1.33,11.55-.53.71-1.33,1.2-2.58,1.2s-2.04-.49-2.58-1.2c-1.11-1.51-1.33-4.04-1.33-11.55s.22-10.04,1.33-11.55c.53-.71,1.33-1.2,2.58-1.2s2.04.49,2.58,1.2c1.11,1.51,1.33,4.04,1.33,11.55h0ZM271.51,74.68l-4.84-14.34c2.75-1.29,3.82-3.86,3.82-8.26,0-6.93-2.66-9.01-7.46-9.01h-7.15v31.62h3.82v-13.59h3.46l4.35,13.59h4ZM266.67,52.08c0,3.37-.67,5.64-3.6,5.64h-3.38v-11.24h3.38c2.93,0,3.6,2.26,3.6,5.6h0ZM284.71,74.68v-31.62h-3.82v31.62h3.82ZM306.51,74.68v-3.42h-8.75l8.75-25.31v-2.89h-12.17v3.42h8.22l-8.79,25.31v2.89h12.75ZM330.23,58.87c0-7.9-.09-11.5-2.26-13.9-1.2-1.33-2.93-2.26-5.46-2.26s-4.22.93-5.42,2.26c-2.18,2.4-2.31,6-2.31,13.9s.13,11.5,2.31,13.9c1.2,1.33,2.89,2.26,5.42,2.26s4.26-.93,5.46-2.26c2.18-2.4,2.26-6,2.26-13.9h0ZM326.41,58.87c0,7.51-.22,10.04-1.33,11.55-.53.71-1.33,1.2-2.58,1.2s-2.04-.49-2.58-1.2c-1.11-1.51-1.33-4.04-1.33-11.55s.22-10.04,1.33-11.55c.53-.71,1.33-1.2,2.58-1.2s2.04.49,2.58,1.2c1.11,1.51,1.33,4.04,1.33,11.55h0ZM355.41,74.68v-31.62h-3.82l.04,21.63-8.13-21.63h-3.55v31.62h3.82v-21.63l8.17,21.63h3.46ZM379.84,66.2c0-4.97-.84-7.19-4.44-8.66l-3.55-1.46c-2.53-1.07-3.02-2-3.02-5.11,0-1.64.36-2.93,1.11-3.78.53-.58,1.33-.98,2.44-.98,1.2,0,2.04.4,2.58,1.07.8.98.98,2.13.98,3.82h3.82c0-2.89-.49-4.93-2.09-6.48-1.2-1.16-2.93-1.82-5.24-1.82-2.09,0-3.77.67-5.02,1.82-1.6,1.47-2.4,3.73-2.4,6.48,0,4.8,1.07,6.57,4.31,7.9l3.6,1.47c2.58,1.07,3.11,2.18,3.11,5.82,0,2.09-.18,3.29-1.02,4.22-.58.62-1.42,1.02-2.71,1.02-1.2,0-2.09-.4-2.62-.98-.84-.89-1.07-2.04-1.07-4.13h-3.82c0,3.38.49,5.2,1.95,6.66,1.24,1.24,3.11,1.91,5.55,1.91s4.4-.75,5.6-1.91c1.51-1.51,1.95-3.6,1.95-6.88Z"/>
      <g>
        <polygon class="cls-1" points="154.3 53.52 154.33 53.5 154.33 53.52 154.3 53.52"/>
        <path class="cls-1" d="M172.19,30.2h1.07v-5.82h1.92v-2.92h3.29v-9.96h1.51V0h.89v11.5h1.51v9.96h3.29v2.92h1.92v5.82h1.07v6.64h1.5v28.96c-.6-.07-1.22-.11-1.87-.1-1.26,0-2.56.27-3.86.53-1.33.27-2.65.53-3.86.51-2.55-.03-3.31-1.21-4.12-2.45-.97-1.49-1.99-3.07-5.73-3.19v-24.25h1.5v-6.64h0ZM190.14,67.96c-1.94.04-3.08.36-4.17.67h-.02c-1.38.41-2.7.79-5.41.58-2.95-.23-4.71-1.12-6.22-1.88-1.2-.61-2.24-1.13-3.62-1.14v5.41h-2.1v14.01h23.64v-14.01h-2.1v-3.64Z"/>
        <path class="cls-1" d="M147.12,65.12v-.02c-.16-.37-.39-.74-.7-1.08-.58-.63-1.44-1.1-2.52-1.12h-.03c-.65,0-1.31.15-1.94.44-.63.29-1.23.72-1.71,1.25-.08.09-.22.12-.32.06-.14-.07-.3-.12-.46-.16h-.02c-.16-.04-.33-.06-.51-.06-.93-.01-1.97.42-2.75,1.09l-.05.05c-.69.61-1.17,1.41-1.18,2.25-.01.76.3,1.57,1.13,2.15.69.49,1.74.82,3.25.84h.02c.44,0,.88-.04,1.29-.14.39-.09.76-.24,1.11-.44.13-.07.3-.03.38.1.22.37.58.74,1.05,1.1l.05.04c.59.45,1.35.88,2.16,1.25,1.57.72,3.36,1.21,4.73,1.23,1.66.02,2.98-.4,3.92-1.06,1.04-.73,1.6-1.75,1.62-2.75,0-.51-.11-.96-.3-1.36-.2-.4-.48-.75-.81-1.07-.53-.51.9-.6,1.09-.59.88.01,1.67.2,2.39.44,2.53.86,4.36,2.47,7.31.2.97-.75,2.08-1.6,3.91-1.98,1.73-.36,2.93-.06,4.12.46l-.15-.13c-1.33-1.18-2.41-2.14-3.94-2.15-.92-.01-1.85.34-2.78.69-.99.37-1.99.75-3.04.73-.66,0-1.38-.18-2.04-.48-.54-.25-1.05-.59-1.46-1-.5.44-1.08.79-1.7,1.03-.73.28-1.51.42-2.31.41-1.05-.01-2.06-.32-2.82-.93-.63-.51-1.09-1.25-1.26-2.21-1.05-.07-1.98-.51-2.66-1.17-.46-.45-.8-.99-1-1.6l-.27-.03-.44-.02c-.87-.01-1.75.16-2.54.49-.76.32-1.45.8-1.99,1.42-.06.07-.14.1-.23.09l-.37-.02c-1.08-.01-1.91.2-2.56.56-.52.28-.94.67-1.28,1.11.04.13.07.25.11.36l.2.48h.1c.21,0,.42.03.62.07h.02c.13.03.27.07.4.12.51-.52,1.11-.94,1.75-1.24.7-.32,1.44-.49,2.17-.49h.02c1.25.02,2.24.56,2.92,1.29.29.31.52.65.69,1,.16-.06.32-.12.48-.15.25-.06.5-.09.74-.08.81,0,1.5.36,2,.88.53.56.84,1.32.83,2.09-.01.92-.46,1.59-1.05,2.08-.9.73-2.16,1-2.67,1h-.18s-.19-.03-.19-.03c-.15-.03-.25-.17-.23-.32.03-.15.17-.25.32-.23l.14.02h.14c.44.01,1.53-.23,2.32-.87.48-.39.84-.93.85-1.65,0-.62-.25-1.24-.68-1.7-.4-.42-.96-.7-1.6-.71-.19,0-.4.02-.61.07-.13.03-.27.07-.4.13.09.3.14.59.14.86v.02c-.01.82-.39,1.62-.97,2.21-.57.58-1.35.96-2.15.96h-.02c-.57,0-1.09-.18-1.46-.51-.35-.31-.57-.75-.56-1.31,0-.34.11-.68.33-.93.2-.23.48-.39.86-.43.15-.02.29.1.3.25.02.15-.1.29-.25.3-.22.02-.39.11-.5.24-.13.15-.19.36-.2.58,0,.38.14.68.38.88.27.24.66.37,1.1.37h.03c.65,0,1.28-.32,1.76-.8.48-.49.8-1.15.81-1.82l-.19-.93h0ZM136.87,62.54c.08.14.15.24.2.27.14.09.34.68.53,1.18l.04.1c-.61.19-1.21.52-1.73.93-.23-.13-.47-.23-.71-.3-.32-.1-.65-.14-.97-.15h-.02c-.83,0-1.64.28-2.25.82-.16.14-.31.3-.44.48-.16-.04-.33-.07-.5-.1-.22-.04-.45-.06-.64-.06-.94-.01-2.06.24-2.89.75-.71.44-1.21,1.07-1.22,1.89,0,.75.28,1.09.54,1.4l.1.12c.1.12.27.13.39.03.12-.1.13-.27.03-.39l-.1-.12c-.2-.23-.42-.49-.41-1.04,0-.6.4-1.08.96-1.43.73-.45,1.74-.68,2.59-.67.15,0,.35.02.55.06l.29.05c-.19.4-.3.86-.31,1.38v.02c0,.76.11,1.34.46,1.82.35.48.93.83,1.84,1.16.14.05.3-.02.35-.17.05-.14-.02-.3-.17-.35-.81-.29-1.3-.59-1.59-.97-.27-.37-.36-.84-.35-1.49v-.03c.01-.83.35-1.49.86-1.94.51-.45,1.19-.69,1.88-.68h.03c.27,0,.55.05.82.13.15.04.29.1.43.17-.65.67-1.09,1.51-1.1,2.4-.01.92.37,1.91,1.37,2.61.77.54,1.92.92,3.55.94h.03c.49,0,.97-.04,1.43-.15.36-.09.7-.21,1.03-.37.22.3.51.6.87.89-.6.85-1.4,1.48-2.31,1.91-1.1.52-2.35.76-3.6.74-1.32-.02-2.64-.33-3.8-.9-1.08-.54-2.02-1.32-2.68-2.31v-.02c-.1-.12-.27-.15-.4-.07-.59.42-1.23.74-1.92.95-1.88.56-4.52.41-6.04-.87-.88-.74-1.39-1.83-1.38-3.25v-.03c.02-1.24.58-2.31,1.42-3.08.91-.84,2.16-1.33,3.39-1.31.44,0,.88.08,1.3.22.4.13.79.33,1.15.6l.04.02c.13.07.3.02.37-.12.48-.91,1.2-1.61,2.05-2.08.91-.51,1.97-.76,3.03-.74.85.01,1.71.19,2.51.55.37.16.73.37,1.07.61h0ZM148.67,59.1c-.07-.27-.11-.55-.11-.84v-.03c.02-1.19.73-2.24,1.76-2.98,1.05-.76,2.41-1.2,3.7-1.19h.03c1.48.02,2.78.57,3.72,1.37.82.7,1.38,1.59,1.56,2.48v.02c.04.21.06.41.06.61,0,.54-.24,1.04-.64,1.39-.39.33-.94.54-1.62.53-.58,0-1.16-.18-1.58-.45-.35-.23-.58-.53-.58-.85,0-.21.13-.46.29-.66.18-.22.38-.37.52-.38.15,0,.27-.14.26-.29,0-.15-.14-.27-.29-.26-.29.02-.65.26-.92.59-.24.29-.41.66-.42,1,0,.53.32.99.83,1.32.5.32,1.18.53,1.87.53.83,0,1.5-.25,1.99-.67.53-.45.82-1.1.83-1.8,0-.17,0-.34-.03-.51.2-.07.41-.13.64-.17.31-.06.64-.08.97-.08.93.01,1.87.26,2.54.71.55.37.91.89.9,1.53,0,.25-.07.52-.19.79-.13.32-.32.64-.54.93-.03.04-.04.08-.05.13-.02.15.08.29.23.31l.38.04.37.02c.58,0,1.17-.11,1.85-.24.91-.18,1.99-.39,3.39-.37,3.67.05,4.64,1.54,5.55,2.95.89,1.37,1.73,2.67,4.57,2.7,1.28.02,2.63-.25,3.98-.52,1.28-.26,2.56-.51,3.75-.52,2.9-.02,5.21.85,7.39,1.67,2.23.84,4.33,1.63,6.78,1.4-.7.14-1.42.21-2.15.2-1.85-.02-3.21-.52-4.58-1.03-1.43-.53-2.88-1.06-4.92-1.08-2.43-.03-3.73.34-4.98.7h-.02c-1.33.39-2.61.76-5.22.56-2.27-.18-3.82-.76-5.1-1.37-.71-.53-1.33-1.08-1.9-1.58-1.41-1.25-2.56-2.27-4.3-2.29-1.02-.01-2,.36-2.98.72-.94.36-1.89.71-2.84.7-.59,0-1.23-.16-1.82-.43-.56-.26-1.08-.62-1.47-1.07v-.02c-.12-.11-.3-.11-.41,0-.49.48-1.08.85-1.72,1.1-.66.25-1.38.38-2.1.37-.93-.01-1.82-.27-2.48-.81-.57-.47-.98-1.15-1.1-2.07-.01-.14-.13-.25-.28-.25h-.02c-.99-.01-1.87-.41-2.5-1.02-.43-.42-.74-.94-.9-1.51v-.02Z"/>
        <path class="cls-1" d="M127.02,31.81c.71-.03,1.45-.11,2.21-.26l.15-.03c.31-.83.22-3.38.02-4.07-.1-.36-.26-.68-.46-.96-.53-.73-1.25-1.14-1.99-1.56-.24-.14-.49-.28-.72-.42-.26-.17-.47-.34-.65-.59-.4-.57-.41-1.03-.5-1.45,1.14.52,1.59.54,2.88.5.65-.02,1.33-.1,2.01-.24.34-.07.28-.99.29-1.3.35.37.78,1.05,1.32.86,1.02-.38,1.93-.84,2.8-1.49,1.59-1.19,1.77-2.26,2.4-2.88.09-.08.2-.14.33-.14h.37v-.86h-.06c-.16,0-.31-.07-.42-.17-.12-.11-.19-.27-.19-.44s.07-.33.19-.44c.11-.11.26-.17.42-.17h.06v-.86h-.06c-.16,0-.31-.07-.42-.17-.12-.11-.19-.27-.19-.44s.07-.33.19-.44c.11-.11.26-.17.42-.17h.06v-.86h-.06c-.16,0-.31-.07-.42-.17-.12-.11-.19-.27-.19-.44s.07-.33.19-.44c.11-.11.26-.17.42-.17h.06v-.86h-.06c-.16,0-.31-.07-.42-.17-.12-.11-.19-.27-.19-.44s.07-.33.19-.44c.11-.11.26-.17.42-.17h.06v-.87c-.13-.02-.25-.08-.35-.17-.12-.11-.19-.27-.19-.44s.07-.33.19-.44c.09-.09.21-.15.35-.17v-.88c-.11-.03-.21-.08-.28-.16-.12-.11-.19-.27-.19-.44s.07-.33.19-.44c.08-.08.18-.13.28-.16v-.9c-.11-.03-.2-.08-.28-.15-.12-.11-.19-.27-.19-.44s.07-.33.19-.44c.08-.07.17-.13.28-.16v-.97c-.07-.04-.12-.09-.17-.15-.08-.1-.12-.23-.12-.37s.05-.27.12-.37c.05-.06.1-.11.17-.15V0h.97v1.09c.06.04.12.09.17.15.08.1.12.23.12.37s-.05.27-.12.37c-.05.06-.1.11-.17.15v.97c.11.03.2.08.28.16.12.11.19.27.19.44s-.07.33-.19.44c-.08.07-.17.13-.28.15v.9c.11.03.21.08.28.16.12.11.19.27.19.44s-.07.33-.19.44c-.08.08-.18.13-.28.16v.88c.13.02.25.08.35.17.12.11.19.27.19.44s-.07.33-.19.44c-.09.09-.21.15-.35.17v.87h.06c.16,0,.31.07.42.17.12.11.19.27.19.44s-.07.33-.19.44c-.11.11-.26.17-.42.17h-.06v.86h.06c.16,0,.31.07.42.17.12.11.19.27.19.44s-.07.33-.19.44c-.11.11-.26.17-.42.17h-.06v.86h.06c.16,0,.31.07.42.17.12.11.19.27.19.44s-.07.33-.19.44c-.11.11-.26.17-.42.17h-.06v.86h.06c.16,0,.31.07.42.17.12.11.19.27.19.44s-.07.33-.19.44c-.11.11-.26.17-.42.17h-.06v.86h.37c.13,0,.25.05.33.14.63.62.81,1.68,2.4,2.88.87.65,1.78,1.12,2.8,1.49.55.19.97-.48,1.32-.86,0,.32-.05,1.23.29,1.3.69.14,1.37.22,2.01.24,1.29.05,1.73.02,2.88-.5-.09.42-.1.88-.5,1.45-.17.25-.38.43-.65.59-.23.15-.48.28-.72.42-.73.42-1.46.83-1.99,1.56-.2.28-.36.6-.46.96-.2.69-.28,3.24.02,4.07l.15.03c.75.15,1.5.24,2.21.26,1.38.05,1.89.02,3.12-.52-.11.5-.17,1.02-.53,1.54-.19.27-.42.46-.7.64-.25.16-.52.31-.79.46-.8.46-1.6.91-2.18,1.71-.22.31-.39.65-.51,1.06-.16.55-.38,4.05-.12,5.15.01.06.03.12.05.16l.17.03c.81.17,1.62.26,2.39.29,1.47.05,2.04.03,3.35-.55-.23,1.05-.36,1.7-1.32,2.31-.27.17-.56.34-.85.5-.87.5-1.73.99-2.36,1.86-.24.34-.43.71-.55,1.15-.31,1.08-.37,5.37-.09,6.12l.19.04c.88.18,1.75.28,2.58.31h.15c-.36.18-.71.39-1.03.62-.61.44-1.13.98-1.49,1.59-.14.24-.26.5-.35.77-.93.17-1.57.22-2.08.2-1.11-.04-1.67-.38-3.45-.39-.71,0-.26-.55.12-.95.18-.19.21-.18-.06-.13-1.04.19-2.06.43-3.21-.51.55-.04,1.11-.84.44-1.48.7-.49,1.39-.99,2.09-1.46.15-.01.54-.21.6-.26l1.27-.88c.05-.04.27-.23.39-.38l.24-.16c.15,0,.32-.03.48-.13.19-.11.32-.28.37-.44l1.33-.89c.36-.29-.07-.94-.46-.59l-1.39,1c-.11.02-.23.06-.34.12-.16.1-.28.23-.34.37l-.21.15c-.14.02-.4.15-.56.26l-1.27.88c-.21.14-.48.42-.47.52l-2.04,1.39.05-.32c.47-.78.6-.76.5-1.34-.08-.49.02-.37-.35-.54-.11-.05-.25-.13-.4-.23-.08-.05-.11-.09-.1-.11.02-.08.38-.06.6-.13-.05-.07-.47-.15-.38-.22.23-.17.54-.22.54-.22-.1-.05-.23-.11-.33-.16.03-.05.24-.02.32-.12-.25-.18-1-.12-1.4-.16-.96-.11-1.1.02-1.61.09,0-.26-.3-.24-.45-.35-.03-.22-.28-.22-.44-.16-.14-.23-.26-.19-.65.08-.21.15-.36-.16-.48.2-.04-.05-.07-.11-.11-.16.27-.31.08-.55-.34-.47-.07-.04-.15-.12-.22-.16.18-.05.13-.28.1-.37-.16-.44-.05-.74.14-1.12.18-.37.38-.94.34-1.43.53-1.12.48-1.72,2.06-3.06.9.85,1.37,1.27,2.07,1.56.66.27,1.52.44,3.14.74.88.16,1.21.68,2.11.71-2.13-1.79-4.73-.78-6.88-3.26.32-.11.77-.24,1.4-.32,1.28-.16,1.72-.16,3.01-.44.58-.12,1.46-.27,2.96-.19,1.94.1,2.13,3.54,2.83,6.1-.15-.84-.25-1.74-.41-2.7-.19-1.16-.31-2.45-1.26-3.25-.34-.29-.71-.43-1.08-.49-1.44-.23-2.78.23-4.2.4-1.61.19-3.01.18-3.46.69-.89-1.08-1.92-1.23-2.81-.86-.63.26-.93.69-1.11,1.22-.33,1-.33,2.16-.35,3.2-.17.6-.09,1.42.33,2.53-.2.26-.07.33,0,.4.09.08.02.12-.04.2-.26.33-.34.51-.3.86l.11.35c.08.9.36,1.48.98,1.36.17-.03.21.12.21.23l.02.47c-.24.13-.48.26-.72.39-.2.07-.2.1-.47.14-.57-.07-.93-.02-1.01.12-.02.06.11.03.12.03.1,0,.17.02.14.1-.09.04-.21.13-.2.2,0,.11.04.04.06,0,.1-.16.19-.09.18-.07-.04.05-.08.1-.07.11.02.01.11-.01.12-.02.25-.16.37-.16.62-.14-.14.11-.25.18-.39.25,0,0-.17.1.04.1.39,0,.56-.34.67-.38.28-.09.62-.06,1.01-.09.21.1.53.51.61.72.03.06-.13,0-.13.04,0,.05.14.14.22.23.14.17.25.36.24.4-.02.06-.32.12-.09.56.07.14.1.17.11.32-.1.5-.83.13-.45,1.05l-1.39.95h0c-.07-.1-.73.25-.83.32l-1.6,1.14c-.08.05-.43.39-.55.57l-.19.13c-.2-.02-.44.03-.66.17-.25.16-.42.39-.47.6l-1.4.96-.3.22c-.22.13.29.87.57.7.63-.43,1.27-.88,1.9-1.33.11-.03.22-.08.33-.14.16-.1.28-.22.37-.36l.51-.37c.17-.07.37-.18.51-.28l1.6-1.14c.18-.13.41-.35.52-.51.4-.29.79-.58,1.19-.87.29,1.12-.18,1.45-.25,1.63-.42,1.01-.33,1.32.52,1.67l.4.12c-.03.19-.06.35-.03.51-.29-.1-.58-.18-.87-.25-.46-.1-.94-.15-1.43-.16-.6,0-1.19.06-1.76.2-.57.14-1.11.35-1.62.63-.49.27-.94.61-1.34,1.02-.28.28-.53.6-.75.94-.08-.05-.17-.1-.26-.14-.08-.04-.17-.09-.26-.12-.05-1.67-.18-3.18-.26-3.48-.13-.47-.34-.88-.6-1.25-.68-.94-1.61-1.47-2.56-2.01-.31-.18-.62-.35-.92-.54-.33-.21-.6-.43-.81-.74-.36-.52-.47-1.1-.6-1.7,1.11.72,2.25.62,3.6.57.83-.03,1.7-.13,2.58-.31l.19-.04c.29-.75.22-5.04-.09-6.12-.12-.44-.31-.81-.55-1.15-.63-.87-1.49-1.36-2.36-1.86-.29-.16-.58-.33-.85-.5-.96-.6-1.09-1.26-1.32-2.31,1.31.57,1.89.6,3.35.55.77-.03,1.57-.12,2.39-.29l.17-.03s.03-.1.05-.16c.26-1.11.04-4.6-.12-5.15-.11-.4-.28-.75-.51-1.06-.58-.8-1.37-1.25-2.18-1.71-.27-.15-.53-.3-.79-.46-.29-.18-.52-.37-.7-.64-.36-.52-.42-1.04-.53-1.54,1.23.55,1.74.57,3.12.52h0ZM147.92,57.64c-1.92,1.08-5.38,1.42-5.24,2.31-1.07,0-1.35-1.6-2.64-1.93-1.02-.26-1.4-1.28-1.7-.94-.34.94-.44,1.59-.77,1.86-.53.43.43.65,1,.84-.52.14-.22.36-.53.54.16.19.33.33.47.57-.25.2-.26.73-.17,1.31.04-.04.08-.08.12-.12h0c.29-.28.63-.54,1.01-.75.38-.21.81-.37,1.3-.48.47-.11,1-.16,1.6-.16h.2c.27-.27.56-.53.88-.76.38-.27.79-.5,1.23-.69.45-.19.91-.33,1.38-.42.47-.09.95-.13,1.44-.13l.39.02c-.02-.14-.02-.29-.02-.44v-.04c0-.2.02-.39.05-.59h0ZM138.38,52.33c-.31.13-.18.26-.28.39.14.01.19.04.3.22.03-.23,0-.39-.03-.61h0ZM136.7,42.55c-.22-.35-.92-.8-1.67-.82-1.33-.04-1.93,1.12-1.92,2.59,0,.74.12,1.43.11,2.29,0,0-.05.85.05,1.36.09-.18.52-.4.78-.1.04-.47.03-.59.03-.96,0-.51.22-.52.36-1.14.36-1.55,1.61-2.77,2.25-3.23h0ZM149.86,74.65c-.55,2.27-.19,8.47-.19,10.95-30.43,0,7.05,0-23.39,0,0-2.54.38-8.97-.23-11.1-.15-.52-.37-.97-.66-1.37l-.08-.1c.98.05,1.97-.07,2.82-.33.38-.11.75-.26,1.11-.44.23-.11.45-.24.66-.37.31.41.66.78,1.04,1.11.51.44,1.07.81,1.67,1.11.63.31,1.29.55,1.98.72.69.16,1.4.25,2.12.26.68,0,1.37-.05,2.04-.19.65-.13,1.28-.34,1.86-.62.52-.25,1.01-.55,1.45-.92.38-.32.73-.68,1.04-1.09.23.16.47.31.72.46.38.22.8.44,1.24.64.84.38,1.74.7,2.61.93.75.2,1.49.32,2.16.35Z"/>
      </g>
    </g>
  </g>
</svg>