<?xml version="1.0" encoding="UTF-8"?>
<svg id="Layer_2" data-name="Layer 2" xmlns="http://www.w3.org/2000/svg" viewBox="0 0 459.99 90.51">
  <defs>
    <style>
      .cls-1 {
        fill: #d4975c;
        fill-rule: evenodd;
      }
    </style>
  </defs>
  <g id="_图层_1" data-name="图层 1">
    <path class="cls-1" d="M88.12,59.79l-.02-.06c-.5-1.23-1.27-2.47-2.29-3.57-1.94-2.08-4.78-3.65-8.33-3.7h-.09c-2.14-.02-4.35.5-6.42,1.44-2.1.96-4.06,2.38-5.66,4.14-.28.31-.72.38-1.08.21-.47-.23-.99-.41-1.53-.52l-.07-.02c-.54-.11-1.11-.17-1.68-.18-3.08-.04-6.52,1.39-9.12,3.62l-.17.15c-2.29,2.03-3.89,4.67-3.93,7.45-.03,2.5,1.01,5.2,3.76,7.14,2.29,1.61,5.76,2.71,10.77,2.78h.07c1.47.02,2.92-.12,4.29-.45,1.28-.31,2.51-.79,3.67-1.46.44-.25.99-.11,1.25.33.72,1.22,1.93,2.46,3.48,3.65l.15.12c1.97,1.5,4.46,2.92,7.17,4.16,5.2,2.37,11.14,4.01,15.68,4.07,5.5.07,9.89-1.34,12.99-3.52,3.45-2.42,5.32-5.8,5.36-9.11.02-1.7-.36-3.19-1-4.5-.66-1.32-1.6-2.49-2.69-3.53-1.76-1.7,2.99-1.97,3.6-1.97,2.93.04,5.52.65,7.92,1.46,8.38,2.84,14.44,8.2,24.22.66,3.2-2.47,6.88-5.31,12.94-6.57,5.73-1.2,9.7-.21,13.65,1.54l-.48-.43c-4.4-3.9-7.97-7.07-13.06-7.14-3.04-.04-6.13,1.12-9.22,2.28-3.28,1.24-6.59,2.48-10.08,2.43-2.2-.03-4.57-.6-6.75-1.59-1.8-.83-3.49-1.96-4.85-3.33-1.66,1.47-3.58,2.61-5.64,3.4-2.4.92-5.01,1.38-7.64,1.35-3.49-.04-6.83-1.04-9.35-3.09-2.1-1.71-3.62-4.13-4.18-7.31-3.48-.22-6.57-1.68-8.82-3.87-1.51-1.48-2.66-3.29-3.3-5.3l-.88-.09-1.44-.07c-2.89-.04-5.79.52-8.42,1.64-2.53,1.07-4.81,2.66-6.6,4.72-.19.22-.48.33-.75.31l-1.23-.06c-3.57-.04-6.32.66-8.48,1.84-2.15,1.17-3.76,2.85-5.04,4.75-.28.42-.85.53-1.27.25l-.19-.17c-1.94-2.13-4.25-3.74-6.74-4.84-2.65-1.17-5.51-1.77-8.33-1.81-3.53-.04-7.03.79-10.04,2.46-2.8,1.57-5.19,3.87-6.79,6.9-.23.45-.79.62-1.24.38l-.12-.08c-1.2-.89-2.49-1.55-3.81-1.99-1.4-.47-2.86-.7-4.32-.72-4.1-.05-8.22,1.58-11.24,4.35C1.92,61.29.06,64.84,0,68.93v.09c-.04,4.71,1.65,8.33,4.57,10.78,5.03,4.24,13.78,4.76,20.01,2.89,2.31-.7,4.41-1.75,6.38-3.14.41-.29.98-.19,1.27.22l.04.06c2.18,3.3,5.29,5.88,8.88,7.67,3.84,1.92,8.22,2.94,12.59,3,4.13.05,8.28-.72,11.92-2.45,3.01-1.43,5.67-3.52,7.66-6.34-1.17-.96-2.15-1.95-2.87-2.95-1.08.55-2.22.96-3.4,1.24-1.52.37-3.11.52-4.72.51h-.11c-5.41-.08-9.21-1.32-11.77-3.12-3.32-2.33-4.57-5.61-4.53-8.66.04-2.94,1.49-5.72,3.65-7.95-.47-.23-.95-.42-1.44-.56-.89-.26-1.81-.4-2.7-.42h-.09c-2.3-.01-4.55.79-6.23,2.26-1.68,1.48-2.8,3.67-2.84,6.42v.09c-.02,2.13.27,3.7,1.18,4.92.93,1.26,2.58,2.25,5.25,3.21.48.17.72.7.55,1.17-.17.48-.7.72-1.17.55-3.02-1.08-4.93-2.27-6.1-3.84-1.18-1.59-1.56-3.5-1.53-6.03v-.07c.02-1.72.39-3.25,1.02-4.57l-.97-.18c-.68-.11-1.33-.18-1.84-.19-2.82-.03-6.15.72-8.58,2.22-1.86,1.15-3.16,2.74-3.19,4.73-.02,1.8.71,2.66,1.37,3.43l.34.4c.33.39.28.96-.11,1.29-.39.33-.96.28-1.29-.11l-.33-.39c-.87-1.02-1.83-2.15-1.8-4.64.03-2.71,1.69-4.8,4.05-6.26,2.72-1.68,6.43-2.53,9.56-2.49.63,0,1.37.09,2.11.21.57.09,1.15.21,1.66.34.43-.58.92-1.11,1.45-1.58,2.02-1.77,4.71-2.73,7.46-2.71h.08c1.08.01,2.17.17,3.23.49.81.24,1.6.58,2.36,1,2.88-2.34,6.6-3.81,9.98-3.77.7,0,1.39.08,2.04.22h.07c.45.11.88.24,1.31.41,1.68-1.73,3.67-3.13,5.8-4.1,2.31-1.05,4.78-1.63,7.2-1.61h.07c4.14.05,7.43,1.87,9.67,4.28.95,1.02,1.72,2.15,2.28,3.31.55-.22,1.07-.38,1.59-.5.83-.2,1.66-.28,2.46-.27,2.67.03,4.96,1.19,6.61,2.92,1.76,1.85,2.78,4.38,2.75,6.92-.04,3.04-1.52,5.28-3.47,6.87-2.98,2.42-7.15,3.33-8.85,3.31l-.6-.03-.61-.08c-.5-.09-.83-.56-.75-1.06.09-.5.56-.83,1.06-.75l.47.07.45.02c1.46.02,5.07-.78,7.68-2.9,1.58-1.28,2.77-3.08,2.8-5.48.02-2.06-.81-4.12-2.25-5.63-1.33-1.4-3.17-2.33-5.31-2.36-.63,0-1.31.07-2.01.23-.44.1-.89.24-1.33.41.31.99.47,1.96.47,2.86v.08c-.03,2.72-1.3,5.37-3.21,7.31-1.9,1.93-4.47,3.19-7.14,3.19h-.08c-1.9-.02-3.62-.61-4.84-1.68-1.17-1.03-1.88-2.5-1.86-4.33.02-1.14.37-2.25,1.1-3.08.66-.76,1.6-1.29,2.85-1.41.5-.05.95.31,1,.82.05.5-.31.95-.82,1-.74.07-1.29.37-1.65.79-.43.5-.65,1.19-.65,1.91-.02,1.25.46,2.24,1.24,2.93.9.79,2.19,1.21,3.63,1.23h.09c2.15,0,4.25-1.04,5.82-2.64,1.6-1.62,2.65-3.81,2.69-6.02l-.62-3.07h0ZM276.75,36.62l.62,3.07c-.03,2.22-1.09,4.4-2.69,6.02-1.58,1.59-3.67,2.64-5.82,2.64h-.09c-1.44-.02-2.73-.45-3.63-1.23-.78-.69-1.26-1.68-1.24-2.93,0-.72.22-1.41.65-1.91.36-.42.91-.72,1.65-.79.5-.05.87-.5.82-1-.05-.5-.5-.87-1-.82-1.24.13-2.19.66-2.85,1.41-.73.84-1.08,1.95-1.1,3.08-.02,1.83.69,3.3,1.86,4.33,1.22,1.07,2.94,1.66,4.84,1.69h.08c2.67,0,5.23-1.26,7.14-3.19,1.91-1.94,3.18-4.58,3.21-7.31v-.08c0-.9-.16-1.87-.47-2.86.45-.17.89-.31,1.33-.41.7-.16,1.38-.24,2.01-.23,2.14.03,3.98.96,5.31,2.36,1.43,1.51,2.27,3.57,2.25,5.63-.03,2.4-1.22,4.19-2.8,5.48-2.61,2.12-6.21,2.92-7.68,2.9l-.45-.02-.47-.07c-.5-.09-.98.25-1.06.75s.25.98.75,1.06l.61.08.6.03c1.7.02,5.88-.89,8.85-3.31,1.96-1.59,3.43-3.83,3.47-6.87.03-2.54-.99-5.06-2.75-6.91-1.65-1.73-3.94-2.89-6.61-2.92-.8,0-1.62.08-2.46.27-.51.12-1.04.29-1.59.5-.56-1.16-1.33-2.29-2.28-3.31-2.24-2.41-5.53-4.23-9.67-4.28h-.07c-2.42-.01-4.89.56-7.2,1.61-2.13.98-4.12,2.37-5.8,4.1-.43-.17-.87-.3-1.31-.4h-.07c-.66-.15-1.35-.23-2.04-.24-3.38-.04-7.11,1.43-9.98,3.77-.76-.43-1.55-.76-2.36-1-1.05-.32-2.14-.48-3.23-.49h-.08c-2.75,0-5.44.94-7.46,2.72-.53.47-1.02,1-1.45,1.58-.52-.13-1.09-.24-1.66-.34-.73-.12-1.48-.2-2.11-.21-3.13-.04-6.84.8-9.56,2.49-2.36,1.46-4.02,3.55-4.05,6.26-.03,2.49.93,3.62,1.8,4.64l.33.39c.33.39.9.43,1.29.11.39-.33.43-.9.11-1.29l-.34-.4c-.66-.77-1.39-1.63-1.37-3.43.02-1.99,1.33-3.58,3.18-4.73,2.42-1.5,5.76-2.25,8.58-2.22.51,0,1.16.08,1.84.19l.97.18c-.63,1.33-1,2.85-1.02,4.57v.07c-.02,2.53.36,4.44,1.54,6.03,1.17,1.58,3.08,2.76,6.1,3.84.48.17,1-.08,1.17-.55.17-.48-.08-1-.56-1.17-2.67-.96-4.32-1.94-5.25-3.21-.9-1.22-1.2-2.79-1.18-4.92v-.09c.04-2.76,1.16-4.94,2.84-6.42,1.68-1.48,3.93-2.28,6.23-2.26h.09c.89.01,1.81.15,2.7.42.49.15.97.33,1.44.56-2.17,2.22-3.61,5-3.65,7.95-.04,3.05,1.21,6.33,4.53,8.66,2.56,1.8,6.37,3.03,11.77,3.11h.11c1.61.02,3.2-.14,4.72-.5,1.18-.28,2.32-.69,3.4-1.24.72.99,1.7,1.99,2.87,2.95-1.99,2.82-4.65,4.91-7.66,6.34-3.12,1.48-6.62,2.26-10.15,2.42,1.62.57,3.2,1.17,4.76,1.76,7.4,2.79,14.33,5.4,22.46,4.64-2.33.48-4.72.7-7.11.67-6.13-.08-10.64-1.74-15.18-3.4-4.75-1.74-9.54-3.51-16.29-3.59-8.04-.1-12.37,1.13-16.49,2.31l-.08.02c-4.42,1.27-8.63,2.49-17.28,1.82-7.53-.58-12.66-2.53-16.89-4.54-2.37-1.75-4.41-3.57-6.29-5.24-4.68-4.15-8.48-7.52-14.25-7.59-3.39-.04-6.63,1.18-9.89,2.4-3.13,1.18-6.27,2.36-9.41,2.32-1.95-.02-4.06-.53-6.01-1.43-1.87-.86-3.59-2.07-4.86-3.55l-.05-.05c-.35-.36-.94-.36-1.29-.01-1.64,1.61-3.58,2.83-5.7,3.64-2.18.84-4.56,1.25-6.97,1.22-3.09-.04-6.03-.91-8.21-2.68-1.9-1.55-3.25-3.81-3.63-6.85-.04-.47-.44-.84-.91-.84h-.05c-3.28-.04-6.2-1.34-8.29-3.38-1.42-1.38-2.46-3.11-2.98-5.02l-.02-.06c-.24-.89-.36-1.83-.36-2.78v-.09c.06-3.95,2.43-7.42,5.84-9.89,3.47-2.5,7.98-3.98,12.27-3.94h.09c4.9.07,9.2,1.89,12.33,4.54,2.73,2.32,4.57,5.26,5.15,8.21v.05c.14.68.2,1.36.2,2.04-.02,1.8-.78,3.46-2.13,4.62-1.28,1.11-3.11,1.79-5.37,1.76-1.93-.02-3.85-.58-5.23-1.48-1.17-.76-1.93-1.75-1.92-2.82,0-.7.43-1.51.98-2.19.59-.72,1.27-1.24,1.73-1.27.5-.03.89-.47.86-.97-.03-.5-.47-.89-.97-.86-.96.06-2.15.86-3.04,1.94-.78.96-1.37,2.17-1.38,3.32-.02,1.76,1.07,3.29,2.75,4.38,1.66,1.07,3.93,1.74,6.21,1.77,2.73.03,4.98-.82,6.59-2.2,1.75-1.51,2.73-3.65,2.76-5.98,0-.56-.03-1.13-.1-1.69.66-.24,1.37-.43,2.1-.57,1.04-.19,2.13-.28,3.23-.27,3.07.04,6.2.85,8.43,2.36,1.82,1.23,3.01,2.94,2.98,5.06-.01.82-.24,1.72-.61,2.63-.43,1.05-1.07,2.11-1.79,3.09-.09.12-.15.26-.17.42-.07.5.28.96.78,1.03l1.24.15,1.22.06c1.94.02,3.88-.36,6.13-.8,3.01-.59,6.59-1.29,11.24-1.23,12.17.16,15.38,5.11,18.4,9.77,2.94,4.54,5.72,8.83,15.15,8.95,4.26.05,8.71-.84,13.18-1.73,4.23-.84,8.48-1.7,12.43-1.73,1.42-.01,2.79.04,4.13.15-3.07-1.74-5.72-4.09-7.65-7.01l-.04-.06c-.29-.41-.86-.51-1.27-.22-1.97,1.38-4.07,2.44-6.38,3.14-6.22,1.87-14.97,1.35-20.01-2.89-2.91-2.45-4.61-6.08-4.57-10.78v-.09c.06-4.09,1.92-7.64,4.72-10.21,3.03-2.77,7.15-4.4,11.24-4.35,1.45.02,2.91.25,4.32.72,1.32.44,2.61,1.1,3.81,1.99l.12.08c.45.23,1,.06,1.24-.38,1.6-3.03,3.99-5.34,6.79-6.9,3.01-1.68,6.51-2.51,10.04-2.46,2.82.04,5.68.64,8.33,1.81,2.49,1.1,4.8,2.71,6.74,4.84l.19.17c.42.28.99.17,1.27-.25,1.28-1.9,2.89-3.58,5.04-4.75,2.16-1.18,4.91-1.88,8.48-1.84l1.23.06c.28.02.56-.09.75-.31,1.79-2.06,4.07-3.64,6.6-4.72,2.63-1.11,5.53-1.67,8.42-1.64l1.44.07.88.09c.65,2,1.79,3.82,3.3,5.3,2.26,2.2,5.34,3.65,8.82,3.87.56,3.18,2.08,5.6,4.18,7.31,2.51,2.05,5.86,3.05,9.35,3.09,2.63.03,5.24-.42,7.64-1.35,2.06-.79,3.98-1.93,5.64-3.4,1.36,1.37,3.04,2.5,4.85,3.33,2.17,1,4.55,1.56,6.75,1.59,3.49.05,6.79-1.2,10.08-2.43,3.09-1.16,6.18-2.32,9.22-2.28,5.09.07,8.66,3.23,13.06,7.14l.48.43c-3.95-1.75-7.92-2.74-13.65-1.54-6.06,1.27-9.74,4.1-12.94,6.57-9.78,7.54-15.84,2.18-24.22-.66-2.4-.81-5-1.42-7.92-1.46-.61,0-5.37.27-3.6,1.97,1.09,1.04,2.03,2.21,2.69,3.53.65,1.31,1.02,2.79,1,4.5-.04,3.32-1.91,6.69-5.36,9.12-3.11,2.18-7.49,3.59-12.99,3.52-4.54-.06-10.48-1.7-15.68-4.07-2.71-1.23-5.2-2.66-7.17-4.16l-.15-.12c-1.55-1.2-2.76-2.44-3.48-3.65-.25-.43-.81-.58-1.25-.33-1.16.67-2.39,1.15-3.67,1.46-1.37.33-2.81.47-4.29.46h-.07c-5.01-.07-8.48-1.18-10.77-2.79-2.75-1.93-3.79-4.63-3.76-7.14.04-2.77,1.63-5.42,3.93-7.45l.17-.15c2.61-2.24,6.04-3.66,9.12-3.62.57,0,1.14.07,1.68.18l.07.02c.54.12,1.05.29,1.53.52.36.17.8.1,1.08-.21,1.6-1.77,3.56-3.18,5.66-4.14,2.07-.95,4.27-1.46,6.42-1.44h.09c3.56.05,6.39,1.62,8.33,3.7,1.02,1.1,1.8,2.34,2.29,3.57l.02.06h0ZM281.87,16.7l.02.06c.52,1.9,1.56,3.63,2.98,5.02,2.09,2.04,5.01,3.34,8.29,3.39h.05c.48,0,.88.37.91.84.38,3.04,1.73,5.3,3.63,6.85,2.18,1.78,5.12,2.65,8.21,2.68,2.41.03,4.78-.38,6.97-1.22,2.11-.81,4.06-2.04,5.7-3.64.36-.35.94-.35,1.29.01l.05.05c1.27,1.48,2.99,2.69,4.86,3.55,1.95.89,4.06,1.4,6.01,1.43,3.14.04,6.28-1.14,9.41-2.32,3.25-1.22,6.49-2.44,9.89-2.4,5.77.07,9.57,3.44,14.25,7.59,1.89,1.67,3.93,3.49,6.29,5.24,4.23,2.02,9.36,3.96,16.89,4.54,8.65.66,12.86-.55,17.28-1.82l.08-.02c4.12-1.19,8.44-2.42,16.49-2.31,6.75.09,11.54,1.85,16.29,3.59,4.54,1.67,9.05,3.33,15.18,3.4,2.39.03,4.78-.19,7.11-.67-8.12.77-15.06-1.85-22.46-4.64-7.2-2.71-14.86-5.6-24.48-5.53-3.95.03-8.2.88-12.43,1.73-4.47.89-8.92,1.79-13.18,1.73-9.43-.12-12.21-4.41-15.15-8.95-3.02-4.66-6.23-9.61-18.4-9.77-4.65-.06-8.23.64-11.24,1.23-2.25.44-4.19.82-6.13.8l-1.22-.06-1.24-.15c-.5-.07-.85-.54-.78-1.03.02-.16.08-.3.17-.42.72-.98,1.36-2.04,1.79-3.08.37-.91.6-1.81.61-2.63.02-2.12-1.17-3.83-2.98-5.06-2.22-1.51-5.36-2.32-8.43-2.36-1.09-.01-2.19.07-3.23.26-.74.13-1.45.32-2.1.57.07.56.11,1.13.1,1.69-.03,2.33-1.01,4.47-2.76,5.98-1.61,1.39-3.86,2.24-6.59,2.2-2.28-.03-4.55-.7-6.21-1.77-1.68-1.09-2.77-2.62-2.75-4.38.01-1.15.6-2.37,1.38-3.32.88-1.08,2.08-1.88,3.04-1.94.5-.03.94.35.97.86.03.5-.35.94-.86.97-.46.03-1.15.55-1.73,1.27-.55.68-.97,1.49-.98,2.19-.01,1.07.75,2.06,1.92,2.82,1.38.9,3.3,1.45,5.23,1.48,2.26.03,4.09-.65,5.37-1.76,1.35-1.16,2.1-2.82,2.13-4.62,0-.67-.06-1.36-.19-2.04v-.05c-.59-2.95-2.43-5.89-5.16-8.21C308.91,1.89,304.62.07,299.72,0h-.09c-4.29-.04-8.8,1.44-12.27,3.95-3.41,2.47-5.79,5.93-5.84,9.89v.09c0,.95.12,1.89.36,2.78Z"/>
  </g>
</svg>